HIERARCHY
ROOT Hips
{
	OFFSET 0.000000 0.000000 0.000000 
	CHANNELS 6 Xposition Yposition Zposition Zrotation Yrotation Xrotation
	JOINT LeftUpLeg
	{
		OFFSET 1.363060 -1.794630 0.839290 
		CHANNELS 3 Zrotation Yrotation Xrotation
		JOINT LeftLeg
		{
			OFFSET 2.448110 -6.726130 0.000000 
			CHANNELS 3 Zrotation Yrotation Xrotation
			JOINT LeftFoot
			{
				OFFSET 2.562200 -7.039590 0.000000 
				CHANNELS 3 Zrotation Yrotation Xrotation
				JOINT LeftToeBase
				{
					OFFSET 0.157640 -0.433110 2.322550 
					CHANNELS 3 Zrotation Yrotation Xrotation
					End Site
					{
						OFFSET 0.000000 0.000000 0.000000 
					}
				}
			}
		}
	}
	JOINT RightUpLeg
	{
		OFFSET -1.305520 -1.794630 0.839290 
		CHANNELS 3 Zrotation Yrotation Xrotation
		JOINT RightLeg
		{
			OFFSET -2.542530 -6.985550 0.000000 
			CHANNELS 3 Zrotation Yrotation Xrotation
			JOINT RightFoot
			{
				OFFSET -2.568260 -7.056230 0.000000 
				CHANNELS 3 Zrotation Yrotation Xrotation
				JOINT RightToeBase
				{
					OFFSET -0.164730 -0.452590 2.363150 
					CHANNELS 3 Zrotation Yrotation Xrotation
					End Site
					{
						OFFSET 0.000000 0.000000 0.000000 
					}
				}
			}
		}
	}
	JOINT Spine
	{
		OFFSET 0.028270 2.035590 -0.193380 
		CHANNELS 3 Zrotation Yrotation Xrotation
		JOINT Spine1
		{
			OFFSET 0.056720 2.048850 -0.042750 
			CHANNELS 3 Zrotation Yrotation Xrotation
			JOINT Neck1
			{
				OFFSET -0.054170 1.746240 0.172020 
				CHANNELS 3 Zrotation Yrotation Xrotation
				JOINT Head
				{
					OFFSET 0.104070 1.761360 -0.123970 
					CHANNELS 3 Zrotation Yrotation Xrotation
					End Site
					{
						OFFSET 0.000000 0.000000 0.000000 
					}
				}
			}
			JOINT LeftArm
			{
				OFFSET 3.362410 1.200890 -0.311210 
				CHANNELS 3 Zrotation Yrotation Xrotation
				JOINT LeftForeArm
				{
					OFFSET 4.983000 -0.000000 -0.000000 
					CHANNELS 3 Zrotation Yrotation Xrotation
					JOINT LeftHand
					{
						OFFSET 3.483560 -0.000000 -0.000000 
						CHANNELS 3 Zrotation Yrotation Xrotation
						JOINT LeftHandIndex1
						{
							OFFSET 0.715260 -0.000000 -0.000000 
							CHANNELS 3 Zrotation Yrotation Xrotation
							End Site
							{
								OFFSET 0.000000 0.000000 0.000000 
							}
						}
					}
				}
			}
			JOINT RightArm
			{
				OFFSET -3.136600 1.374050 -0.404650 
				CHANNELS 3 Zrotation Yrotation Xrotation
				JOINT RightForeArm
				{
					OFFSET -5.241900 -0.000000 -0.000000 
					CHANNELS 3 Zrotation Yrotation Xrotation
					JOINT RightHand
					{
						OFFSET -3.444170 -0.000000 -0.000000 
						CHANNELS 3 Zrotation Yrotation Xrotation
						JOINT RightHandIndex1
						{
							OFFSET -0.622530 -0.000000 -0.000000 
							CHANNELS 3 Zrotation Yrotation Xrotation
							End Site
							{
								OFFSET 0.000000 0.000000 0.000000 
							}
						}
					}
				}
			}
		}
	}
}
MOTION
Frames: 6
Frame Time: 0.041667
-2.469512 20.869305 9.277292 -5.527706 13.340770 0.508110 -8.730175 -3.826868 -9.209839 1.995182 10.704134 28.860388 2.046657 -17.969016 -17.941865 0.238700 -3.144300 -8.680800 23.035922 -3.177496 -12.099301 -2.103559 -10.976242 29.282729 -0.718379 2.033970 -10.088255 -0.045300 -1.373200 3.776300 2.157645 1.486663 -2.245775 3.180271 0.796017 0.958256 0.477454 5.122556 26.730730 1.535300 0.841700 16.270300 -89.077730 4.965518 19.764531 15.017322 -25.854306 -3.445515 0.177964 0.713417 2.240317 -7.125000 0.000000 0.000000 82.725227 2.202119 22.934567 -15.232981 23.822874 -3.504125 0.229201 -0.116151 -9.011796 7.125000 0.000000 0.000000 
-2.484499 20.865383 9.284634 -5.574377 13.834149 0.416879 -8.620623 -3.833156 -9.254936 2.013890 10.719668 28.916090 2.017410 -18.276708 -17.727582 0.219900 -3.018900 -8.331300 23.180652 -2.966239 -11.878109 -2.087900 -10.970224 29.241738 -0.640184 1.314570 -10.362078 -0.044200 -1.356600 3.730600 2.157089 1.623187 -2.143225 3.130736 0.863699 1.156639 0.646230 5.093049 26.848310 1.670700 0.810600 16.466100 -89.099777 4.471979 19.543584 14.743015 -25.482178 -3.335753 0.191795 0.691671 2.838191 -7.125000 0.000000 0.000000 82.653744 2.451593 23.257059 -15.239683 23.830842 -3.506670 0.231032 -0.118689 -9.218445 7.125000 0.000000 0.000000 
-2.500289 20.865483 9.289261 -5.889589 14.490528 0.344179 -8.177032 -4.038671 -9.361831 2.051888 10.743801 29.025623 1.959131 -18.812239 -17.272864 0.200100 -2.880400 -7.945900 23.616965 -2.744500 -11.646558 -2.052554 -10.930597 29.090993 -0.556688 0.564786 -10.668763 -0.073000 -1.742900 4.795600 2.183561 1.696497 -2.052013 2.979161 0.906358 1.379671 0.706783 5.042116 26.926901 1.731400 0.772700 16.652400 -89.028550 3.915394 19.625515 14.530097 -25.189672 -3.252464 0.214689 0.670750 2.883203 -7.125000 0.000000 0.000000 82.653747 2.734957 23.699864 -15.166124 23.732446 -3.476243 0.238573 -0.131793 -9.750236 7.125000 0.000000 0.000000 
-2.512560 20.876144 9.297609 -5.871950 15.277077 0.459554 -8.092876 -4.407799 -9.574758 2.098437 10.793339 29.219866 1.896833 -19.284084 -16.857773 0.183600 -2.759700 -7.610500 23.617893 -3.196093 -11.887917 -2.013695 -10.856269 28.861381 -0.546606 0.494728 -10.651986 -0.121200 -2.244100 6.180800 2.182130 1.710439 -2.049395 2.911050 0.916880 1.386932 0.576881 5.118490 26.889186 1.679200 0.786900 16.664800 -89.075933 3.911188 19.912008 14.707349 -25.416484 -3.314629 0.188242 0.682732 2.459120 -7.125000 0.000000 0.000000 82.593377 2.692324 24.176339 -15.189269 23.766345 -3.487148 0.244699 -0.142656 -10.266855 7.125000 0.000000 0.000000 
-2.529256 20.882984 9.299620 -6.204488 15.957836 0.590053 -7.625067 -4.593895 -10.032015 2.147851 10.829512 29.393990 1.886694 -19.647032 -16.709656 0.200400 -2.882700 -7.952500 24.066350 -3.399396 -12.255956 -1.979133 -10.791006 28.669119 -0.510446 0.165206 -10.820866 -0.127100 -2.298400 6.331000 2.211431 1.864092 -2.097092 2.722511 1.004288 1.283530 0.379259 5.214601 26.901123 1.560000 0.826700 16.675100 -89.106279 4.122351 20.215825 14.971944 -25.761077 -3.416712 0.178526 0.698234 2.141336 -7.125000 0.000000 0.000000 82.610774 2.423307 24.201072 -15.361669 24.000589 -3.560871 0.243561 -0.138789 -10.018173 7.125000 0.000000 0.000000 
-2.554200 20.881777 9.297206 -6.706756 16.640065 0.588801 -6.939518 -4.706573 -10.431963 2.183184 10.835519 29.470027 1.885868 -20.010809 -16.589637 0.246500 -3.194900 -8.821700 24.753586 -3.192959 -12.408644 -1.955432 -10.759017 28.571549 -0.414077 -0.628856 -11.099798 -0.087600 -1.909000 5.254300 2.271953 2.025299 -2.127822 2.566513 1.095167 1.162610 0.123379 5.337167 26.910913 1.370700 0.902800 16.661800 -89.075155 4.202567 20.676948 15.082416 -25.915328 -3.467190 0.209346 0.702180 1.392187 -7.125000 0.000000 0.000000 82.727681 2.157480 24.199170 -15.578824 24.283336 -3.651644 0.244762 -0.127580 -9.665129 7.125000 0.000000 0.000000 
